<?xml version="1.0" encoding="UTF-8"?>
<svg xmlns="http://www.w3.org/2000/svg" xmlns:xlink="http://www.w3.org/1999/xlink" width="187.5pt" height="74.999997pt" viewBox="0 0 187.5 74.999997" version="1.2">
<defs>
<clipPath id="clip1">
  <path d="M 51 53 L 114 53 L 114 67.246094 L 51 67.246094 Z M 51 53 "/>
</clipPath>
<clipPath id="clip2">
  <path d="M 34.410156 32 L 152.910156 32 L 152.910156 53 L 34.410156 53 Z M 34.410156 32 "/>
</clipPath>
</defs>
<g id="surface1">
<g clip-path="url(#clip1)" clip-rule="nonzero">
<path style=" stroke:none;fill-rule:evenodd;fill:rgb(100%,59.999084%,0%);fill-opacity:1;" d="M 107.878906 59.636719 C 101.027344 64.652344 91.066406 67.332031 82.503906 67.332031 C 70.492188 67.332031 59.683594 62.929688 51.503906 55.601562 C 50.859375 55.027344 51.4375 54.242188 52.207031 54.6875 C 61.035156 59.78125 71.949219 62.84375 83.222656 62.84375 C 90.824219 62.84375 99.1875 61.285156 106.878906 58.046875 C 108.042969 57.558594 109.011719 58.804688 107.875 59.640625 M 110.730469 56.402344 C 109.859375 55.289062 104.945312 55.878906 102.722656 56.136719 C 102.046875 56.21875 101.945312 55.636719 102.550781 55.21875 C 106.472656 52.480469 112.910156 53.273438 113.660156 54.1875 C 114.414062 55.105469 113.46875 61.507812 109.78125 64.5625 C 109.214844 65.03125 108.675781 64.78125 108.925781 64.160156 C 109.753906 62.109375 111.609375 57.515625 110.730469 56.402344 "/>
</g>
<g clip-path="url(#clip2)" clip-rule="nonzero">
<path style=" stroke:none;fill-rule:evenodd;fill:rgb(100%,100%,100%);fill-opacity:1;" d="M 102.875 35.894531 L 102.875 33.230469 C 102.871094 33.042969 102.9375 32.882812 103.070312 32.75 C 103.203125 32.617188 103.367188 32.554688 103.554688 32.558594 L 115.570312 32.558594 C 115.953125 32.558594 116.261719 32.832031 116.261719 33.230469 L 116.261719 35.507812 C 116.257812 35.890625 115.933594 36.390625 115.359375 37.183594 L 109.136719 45.996094 C 111.449219 45.9375 113.890625 46.28125 115.988281 47.453125 C 116.460938 47.71875 116.578125 48.105469 116.625 48.488281 L 116.625 51.328125 C 116.625 51.714844 116.191406 52.167969 115.738281 51.933594 C 112.042969 50.015625 107.132812 49.804688 103.046875 51.957031 C 102.628906 52.179688 102.191406 51.730469 102.191406 51.34375 L 102.191406 48.648438 C 102.191406 48.214844 102.199219 47.476562 102.632812 46.816406 L 109.847656 36.558594 L 103.582031 36.558594 C 103.195312 36.558594 102.886719 36.289062 102.886719 35.894531 M 59.050781 52.496094 L 55.394531 52.496094 C 55.046875 52.46875 54.769531 52.210938 54.742188 51.878906 L 54.742188 33.277344 C 54.742188 32.90625 55.058594 32.609375 55.445312 32.609375 L 58.855469 32.609375 C 59.210938 32.625 59.492188 32.894531 59.519531 33.230469 L 59.519531 35.660156 L 59.585938 35.660156 C 60.476562 33.3125 62.148438 32.214844 64.398438 32.214844 C 66.683594 32.214844 68.113281 33.3125 69.144531 35.660156 C 70.027344 33.3125 72.035156 32.214844 74.191406 32.214844 C 75.722656 32.214844 77.398438 32.84375 78.421875 34.25 C 79.578125 35.8125 79.34375 38.089844 79.34375 40.082031 L 79.335938 51.824219 C 79.335938 52.195312 79.019531 52.496094 78.632812 52.496094 L 74.96875 52.496094 C 74.617188 52.46875 74.3125 52.179688 74.3125 51.824219 L 74.3125 41.949219 C 74.3125 41.167969 74.382812 39.207031 74.210938 38.464844 C 73.9375 37.214844 73.121094 36.863281 72.058594 36.863281 C 71.175781 36.863281 70.25 37.449219 69.875 38.386719 C 69.5 39.328125 69.535156 40.898438 69.535156 41.953125 L 69.535156 51.8125 C 69.535156 52.183594 69.222656 52.484375 68.832031 52.484375 L 65.171875 52.484375 C 64.800781 52.460938 64.511719 52.167969 64.511719 51.8125 L 64.507812 41.953125 C 64.507812 39.875 64.851562 36.824219 62.257812 36.824219 C 59.628906 36.824219 59.734375 39.800781 59.734375 41.953125 L 59.734375 51.8125 C 59.734375 52.183594 59.417969 52.484375 59.027344 52.484375 M 126.605469 32.230469 C 132.03125 32.230469 134.964844 36.847656 134.964844 42.722656 C 134.964844 48.394531 131.722656 52.894531 126.605469 52.894531 C 121.292969 52.894531 118.382812 48.277344 118.382812 42.523438 C 118.382812 36.730469 121.316406 32.214844 126.605469 32.214844 M 126.636719 36.015625 C 123.945312 36.015625 123.773438 39.652344 123.773438 41.921875 C 123.773438 44.191406 123.738281 49.046875 126.605469 49.046875 C 129.4375 49.046875 129.574219 45.132812 129.574219 42.75 C 129.574219 41.179688 129.503906 39.300781 129.027344 37.8125 C 128.617188 36.519531 127.800781 36.011719 126.640625 36.011719 M 142 52.496094 L 138.359375 52.496094 C 138.007812 52.46875 137.703125 52.179688 137.703125 51.824219 L 137.699219 33.214844 C 137.730469 32.875 138.03125 32.609375 138.402344 32.609375 L 141.792969 32.609375 C 142.109375 32.625 142.371094 32.839844 142.445312 33.128906 L 142.445312 35.976562 L 142.511719 35.976562 C 143.535156 33.433594 144.96875 32.21875 147.492188 32.21875 C 149.148438 32.21875 150.730469 32.804688 151.761719 34.410156 C 152.707031 35.898438 152.707031 38.402344 152.707031 40.203125 L 152.707031 51.914062 C 152.664062 52.242188 152.359375 52.5 152 52.5 L 148.351562 52.5 C 148.019531 52.472656 147.738281 52.230469 147.703125 51.914062 L 147.703125 41.808594 C 147.703125 39.777344 147.941406 36.796875 145.417969 36.796875 C 144.527344 36.796875 143.710938 37.390625 143.292969 38.285156 C 142.777344 39.421875 142.710938 40.554688 142.710938 41.808594 L 142.710938 51.824219 C 142.707031 52.199219 142.386719 52.5 141.996094 52.5 M 93.308594 43.597656 C 93.308594 45.011719 93.34375 46.175781 92.621094 47.441406 C 92.042969 48.460938 91.117188 49.089844 90.09375 49.089844 C 88.691406 49.089844 87.867188 48.027344 87.867188 46.464844 C 87.867188 43.375 90.660156 42.8125 93.304688 42.8125 L 93.304688 43.597656 M 96.992188 52.433594 C 96.75 52.644531 96.398438 52.660156 96.128906 52.519531 C 94.914062 51.519531 94.695312 51.054688 94.03125 50.101562 C 92.023438 52.132812 90.601562 52.738281 88.003906 52.738281 C 84.925781 52.738281 82.535156 50.855469 82.535156 47.089844 C 82.535156 44.148438 84.136719 42.144531 86.433594 41.167969 C 88.417969 40.300781 91.1875 40.148438 93.304688 39.90625 L 93.304688 39.4375 C 93.304688 38.578125 93.371094 37.558594 92.855469 36.8125 C 92.414062 36.144531 91.5625 35.871094 90.804688 35.871094 C 89.410156 35.871094 88.171875 36.578125 87.871094 38.046875 C 87.808594 38.375 87.566406 38.695312 87.230469 38.710938 L 83.6875 38.335938 C 83.390625 38.269531 83.058594 38.03125 83.144531 37.574219 C 83.957031 33.308594 87.84375 32.027344 91.316406 32.027344 C 93.097656 32.027344 95.421875 32.496094 96.824219 33.832031 C 98.601562 35.476562 98.433594 37.675781 98.433594 40.066406 L 98.433594 45.714844 C 98.433594 47.410156 99.140625 48.15625 99.8125 49.074219 C 100.042969 49.402344 100.09375 49.792969 99.796875 50.039062 L 97 52.457031 L 96.992188 52.445312 M 45.386719 43.609375 C 45.386719 45.023438 45.421875 46.1875 44.703125 47.453125 C 44.121094 48.472656 43.203125 49.101562 42.171875 49.101562 C 40.769531 49.101562 39.953125 48.039062 39.953125 46.476562 C 39.953125 43.386719 42.746094 42.824219 45.386719 42.824219 L 45.386719 43.609375 M 49.070312 52.445312 C 48.828125 52.65625 48.480469 52.671875 48.207031 52.53125 C 46.996094 51.53125 46.789062 51.066406 46.109375 50.113281 C 44.105469 52.144531 42.6875 52.75 40.085938 52.75 C 37.011719 52.75 34.617188 50.871094 34.617188 47.101562 C 34.617188 44.160156 36.226562 42.160156 38.515625 41.179688 C 40.5 40.3125 43.269531 40.160156 45.386719 39.921875 L 45.386719 39.453125 C 45.386719 38.589844 45.457031 37.570312 44.945312 36.828125 C 44.496094 36.160156 43.648438 35.882812 42.894531 35.882812 C 41.5 35.882812 40.257812 36.59375 39.941406 38.0625 C 39.878906 38.390625 39.636719 38.710938 39.308594 38.726562 L 35.761719 38.347656 C 35.464844 38.28125 35.136719 38.042969 35.21875 37.585938 C 36.035156 33.324219 39.917969 32.039062 43.390625 32.039062 C 45.171875 32.039062 47.496094 32.507812 48.898438 33.84375 C 50.675781 35.492188 50.507812 37.6875 50.507812 40.078125 L 50.507812 45.726562 C 50.507812 47.425781 51.214844 48.167969 51.882812 49.089844 C 52.121094 49.417969 52.171875 49.808594 51.871094 50.050781 L 49.085938 52.457031 L 49.074219 52.445312 "/>
</g>
</g>
</svg>
